HIERARCHY
ROOT Hips
{
	OFFSET	0.00	0.00	0.00
	CHANNELS 6 Xposition Yposition Zposition Zrotation Xrotation Yrotation
	JOINT Spine
	{
		OFFSET	 0.00	0.01	 0.00
		CHANNELS 3 Zrotation Xrotation Yrotation
		JOINT Spine1
		{
			OFFSET	 0.00	 2.45913012437421	 0.00
			CHANNELS 3 Zrotation Xrotation Yrotation
            JOINT Neck
            {
                OFFSET	 0.00	 2.48462964506057	 0.00
                CHANNELS 3 Zrotation Xrotation Yrotation
                JOINT Head
                {
                    OFFSET	 0.00	 0.927524780924562	 0.00
                    CHANNELS 3 Zrotation Xrotation Yrotation
                    End Site 
                    {
                        OFFSET	 0.00	 1.14999962169752	 0.00
                    }
                }
            }
			JOINT LeftShoulder
			{
				OFFSET	 0.00	 2.48462964506057	 0.00
				CHANNELS 3 Zrotation Xrotation Yrotation
				JOINT LeftUpArm
				{
					OFFSET	 0.00	 1.24881979654096	 0.00
					CHANNELS 3 Zrotation Xrotation Yrotation
					JOINT LeftForeArm
					{
						OFFSET	 0.00	2.59758046908119	 0.00
						CHANNELS 3 Zrotation Xrotation Yrotation
						JOINT LeftHand
						{
							OFFSET	 0.00	2.45542024364365	 0.00
							CHANNELS 3 Zrotation Xrotation Yrotation
							JOINT LeftHandThumb 
							{
								OFFSET	 0.00	0.00	 0.00
								CHANNELS 3 Zrotation Xrotation Yrotation
								End Site
								{
									OFFSET	 0.00	0.00	1.00000003353624
								}
							}
							JOINT L_Wrist_End 
							{
								OFFSET	 0.00	0.99999967115358	 0.00
								CHANNELS 3 Zrotation Xrotation Yrotation
								End Site 
								{
									OFFSET	 0.00	 0.00	 0.00
								}
							}
						}
					}
				}
			}
			JOINT RightShoulder
			{
				OFFSET	 0.00	 2.48462964506057	 0.00
				CHANNELS 3 Zrotation Xrotation Yrotation
				JOINT RightUpArm
				{
					OFFSET	 0.00	 1.24881979654096	 0.00
					CHANNELS 3 Zrotation Xrotation Yrotation
					JOINT RightForeArm
					{
						OFFSET	 0.00	2.59758046908119	 0.00
						CHANNELS 3 Zrotation Xrotation Yrotation
						JOINT RightHand
						{
							OFFSET	 0.00	2.45542024364365	 0.00
							CHANNELS 3 Zrotation Xrotation Yrotation
							JOINT RightHandThumb 
							{
								OFFSET	 0.00	0.00	 0.00
								CHANNELS 3 Zrotation Xrotation Yrotation
								End Site
								{
									OFFSET	 0.00	0.00	1.00000003353624
								}
							}
							JOINT R_Wrist_End 
							{
								OFFSET	 0.00	0.99999967115358	 0.00
								CHANNELS 3 Zrotation Xrotation Yrotation
								End Site 
								{
									OFFSET	 0.00	 0.00	 0.00
								}
							}
						}
					}
				}
			}
		}
	}
	JOINT LeftUpLeg
	{
		OFFSET	 1.2719394002717	 0.00	 0.00
		CHANNELS 3 Zrotation Xrotation Yrotation
		JOINT LeftLowLeg
		{
			OFFSET	 0.00	-4.3429100912261	 0.00
			CHANNELS 3 Zrotation Xrotation Yrotation
			JOINT LeftFoot
			{
				OFFSET	 0.00	-4.48767017425826	 0.00
				CHANNELS 3 Zrotation Xrotation Yrotation
				JOINT LeftToeBase
                {
                    OFFSET	 0.00	0.00	 1.51507020887566
                    CHANNELS 3 Zrotation Xrotation Yrotation
                    End Site 
                    {
                        OFFSET	 0.00	0.00	 0.75000010571191
                    }
                }
			}
		}
	}
	JOINT RightUpLeg
	{
		OFFSET	 -1.2719393604653	 0.00	 0.00
		CHANNELS 3 Zrotation Xrotation Yrotation
		JOINT RightLowLeg
		{
			OFFSET	 0.00	-4.3429100912261	 0.00
			CHANNELS 3 Zrotation Xrotation Yrotation
			JOINT RightFoot
			{
				OFFSET	 0.00	-4.48767017425826	 0.00
				CHANNELS 3 Zrotation Xrotation Yrotation
				JOINT RightToeBase
                {
                    OFFSET	 0.00	0.00	 1.51507020887566
                    CHANNELS 3 Zrotation Xrotation Yrotation
                    End Site 
                    {
                        OFFSET	 0.00	0.00	 0.749999965609858
                    }
                }   
			}
		}
	}
}
MOTION 
Frames:	8 
Frame Time: 0.02 
 -2.8638101196289063 5.03375 9.251510009765624 94.0708 85.9895 623.047 3.34017 -17.3809 2.95033 -7.58058 14.9418 2.93999 20.1887 55.1207 349.882 -41.0237 -78.326 -392.324 -115.6293 -4.83609 365.608 -46.7912 5.98042 19.1152 0.0 19.8156 0.0 6.11514 -15.5012 -5.78589 0.0 0.0 0.0 0.0 0.0 0.0 120.1679 -6.18311 -360.613 48.0588 2.15445 -379.823 0.0 23.4883 0.0 3.21724 -9.83693 7.5643 0.0 0.0 0.0 0.0 0.0 0.0 -5.52972 2.35232 -374.845 0.0 14.3704 0.0 -16.166 -6.360901 5.71671 0.0 -19.18371 0.0 4.23404 2.66426 13.896 0.0 18.2274 0.0 26.2577 -14.322599 -6.25113 0.0 -15.92742 0.0 
  -2.8595700073242187 5.038779907226562 9.252020263671875 93.3891 86.0103 623.819 3.29349 -17.294 2.93148 -7.59034 14.8697 2.92997 20.2024 55.1404 349.889 -40.8288 -78.3113 -392.155 -115.6113 -4.81213 365.682 -46.7721 5.98716 19.2491 0.0 19.803 0.0 6.21161 -15.4409 -6.26641 0.0 0.0 0.0 0.0 0.0 0.0 120.1249 -6.29901 -360.654 48.1347 2.12476 -379.621 0.0 23.6178 0.0 2.94632 -9.45551 8.37537 0.0 0.0 0.0 0.0 0.0 0.0 -5.52931 2.36412 -374.945 0.0 14.3726 0.0 -16.1512 -6.3411007 5.7044 0.0 -19.177021 0.0 4.25901 2.60691 13.9172 0.0 18.4073 0.0 26.2109 -14.3668 -6.34678 0.0 -15.952238 0.0 
  -2.855409851074219 5.045539855957031 9.252329711914063 92.8965 85.9996 624.389 3.20964 -17.1982 2.9003 -7.5788 14.7641 2.9353 20.2858 55.2338 349.823 -40.8983 -78.3289 -392.203 -115.6088 -4.76116 365.774 -46.7314 5.95194 19.3316 0.0 19.8887 0.0 6.3069 -15.495 -5.74642 0.0 0.0 0.0 0.0 0.0 0.0 120.1416 -6.41284 -360.723 48.1162 2.16683 -379.487 0.0 23.7217 0.0 2.86693 -9.3335 8.16067 0.0 0.0 0.0 0.0 0.0 0.0 -5.5505 2.30869 -374.849 0.0 14.4398 0.0 -16.0917 -6.2714005 5.55501 0.0 -19.20369 0.0 4.25646 2.63476 14.1023 0.0 18.3649 0.0 26.326 -14.4893 -6.509 0.0 -15.929081 0.0 
  -2.8508599853515624 5.052449951171875 9.2525 92.9977 86.0134 624.329 3.19034 -17.1232 2.9136 -7.59266 14.6364 2.92491 20.3325 55.2997 349.772 -41.0341 -78.3328 -392.384 -115.5911 -4.75702 365.839 -46.7252 5.94218 19.322 0.0 19.9005 0.0 6.26531 -15.4422 -5.95916 0.0 0.0 0.0 0.0 0.0 0.0 120.1534 -6.45443 -360.726 48.1254 2.0446 -379.228 0.0 23.7961 0.0 3.01049 -9.55284 7.35884 0.0 0.0 0.0 0.0 0.0 0.0 -5.56683 2.2429 -374.927 0.0 14.473 0.0 -16.0476 -6.2761993 5.59122 0.0 -19.19028 0.0 4.27558 2.42676 14.0238 0.0 18.699 0.0 26.2883 -14.497999 -6.46262 0.0 -15.964117 0.0 
  -2.846050109863281 5.05864013671875 9.252659912109374 93.5923 86.0202 623.827 3.17033 -17.1267 2.90423 -7.61162 14.5929 2.91513 20.3962 55.3578 349.713 -41.1219 -78.3479 -392.432 -115.5995 -4.7375 365.807 -46.695 5.90186 19.2968 0.0 19.8842 0.0 6.07484 -15.3611 -6.12086 0.0 0.0 0.0 0.0 0.0 0.0 120.1318 -6.46939 -360.584 48.1708 1.83141 -379.057 0.0 23.8965 0.0 3.17068 -9.76367 7.05181 0.0 0.0 0.0 0.0 0.0 0.0 -5.57447 2.14539 -375.01 0.0 14.4944 0.0 -16.0838 -6.262501 5.52823 0.0 -19.18255 0.0 4.27808 2.31854 14.013 0.0 18.777 0.0 26.357 -14.540199 -6.47284 0.0 -15.974477 0.0 
  -2.8415301513671873 5.064169921875 9.252459716796874 93.9632 86.0487 623.557 3.17211 -17.1096 2.90845 -7.64601 14.4926 2.88194 20.4925 55.4779 349.638 -41.1224 -78.3496 -392.458 -115.5748 -4.7233 365.915 -46.6719 5.92322 19.3006 0.0 19.8736 0.0 6.05252 -15.3884 -6.57498 0.0 0.0 0.0 0.0 0.0 0.0 120.1509 -6.56887 -360.827 48.1638 1.97462 -378.764 0.0 23.9274 0.0 3.06181 -9.47533 7.96068 0.0 0.0 0.0 0.0 0.0 0.0 -5.58232 2.103 -375.409 0.0 14.4778 0.0 -16.0682 -6.3239 5.74182 0.0 -19.16414 0.0 4.27901 2.20087 13.7741 0.0 18.9056 0.0 26.3502 -14.4876 -6.34666 0.0 -15.999967 0.0 
  -2.837300109863281 5.0702099609375 9.252379760742187 93.7476 86.0581 623.917 3.15136 -17.0438 2.8914 -7.68475 14.3904 2.83747 20.5361 55.611 349.615 -41.2875 -78.3577 -392.715 -115.5362 -4.70385 365.965 -46.6831 5.93059 19.2419 0.0 19.8051 0.0 6.06746 -15.3826 -6.30442 0.0 0.0 0.0 0.0 0.0 0.0 120.1836 -6.60719 -360.791 48.1913 1.86246 -378.49 0.0 23.8753 0.0 3.16461 -9.58183 7.11432 0.0 0.0 0.0 0.0 0.0 0.0 -5.58906 2.02362 -375.446 0.0 14.5695 0.0 -16.1707 -6.3176003 5.56832 0.0 -19.1473 0.0 4.26483 2.1784 13.643 0.0 18.9347 0.0 26.4034 -14.501499 -6.29645 0.0 -16.0044 0.0 
  -2.8326300048828124 5.0749600219726565 9.253159790039062 92.6424 86.0798 625.169 3.14112 -16.972 2.87757 -7.70783 14.366 2.81131 20.715 55.6523 349.38 -41.2668 -78.3143 -392.636 -115.5217 -4.65867 366.081 -46.6641 5.98246 19.1687 0.0 19.791 0.0 6.05403 -15.4604 -6.04942 0.0 0.0 0.0 0.0 0.0 0.0 120.1815 -6.60614 -360.827 48.2632 1.77993 -377.988 0.0 23.7647 0.0 3.22891 -9.4775 6.91011 0.0 0.0 0.0 0.0 0.0 0.0 -5.60717 2.02962 -375.581 0.0 14.6345 0.0 -16.1847 -6.307699 5.56012 0.0 -19.15567 0.0 4.24458 2.27193 13.5156 0.0 18.8621 0.0 26.4752 -14.483801 -6.26445 0.0 -15.977758 0.0 
